<?xml version="1.0" encoding="iso-8859-1"?>
<!-- Generator: Adobe Illustrator 19.0.0, SVG Export Plug-In . SVG Version: 6.00 Build 0)  -->
<svg version="1.1" id="Layer_1" xmlns="http://www.w3.org/2000/svg" xmlns:xlink="http://www.w3.org/1999/xlink" x="0px" y="0px"
	 viewBox="0 0 512 512" style="enable-background:new 0 0 512 512;" xml:space="preserve">
<polygon style="fill:#A0BF7C;" points="345.6,499.2 345.6,166.4 448,64 448,499.2 "/>
<polygon style="fill:#B3CC96;" points="243.2,499.2 243.2,268.8 345.6,166.4 345.6,499.2 "/>
<polygon style="fill:#D9E5CB;" points="12.8,499.2 140.8,371.2 140.8,499.2 "/>
<polygon style="fill:#C6D9B0;" points="140.8,499.2 140.8,371.2 243.2,268.8 243.2,499.2 "/>
<path style="fill:#573A32;" d="M499.2,102.4c7.074,0,12.8-5.726,12.8-12.8V12.8C512,5.726,506.274,0,499.2,0h-76.8
	c-7.074,0-12.8,5.726-12.8,12.8s5.726,12.8,12.8,12.8h45.901L438.98,54.921c-0.026,0.026-0.043,0.043-0.068,0.068L3.755,490.138
	c-1.195,1.186-2.142,2.611-2.79,4.198c-0.026,0.06-0.034,0.128-0.06,0.196C0.341,495.983,0,497.545,0,499.2
	c0,1.655,0.341,3.217,0.913,4.668c0.026,0.068,0.034,0.128,0.06,0.196c1.297,3.157,3.814,5.666,6.972,6.972
	c0.06,0.026,0.128,0.034,0.196,0.06C9.583,511.659,11.145,512,12.8,512h486.4c7.066,0,12.8-5.726,12.8-12.8
	c0-7.074-5.734-12.8-12.8-12.8h-38.4V69.299l25.6-25.6V89.6C486.4,96.674,492.126,102.4,499.2,102.4z M153.6,376.499l76.8-76.8
	V486.4h-76.8V376.499z M128,486.4H43.699L128,402.099V486.4z M256,274.099l76.8-76.8V486.4H256V274.099z M435.2,486.4h-76.8V171.699
	l76.8-76.8V486.4z"/>
<g>
</g>
<g>
</g>
<g>
</g>
<g>
</g>
<g>
</g>
<g>
</g>
<g>
</g>
<g>
</g>
<g>
</g>
<g>
</g>
<g>
</g>
<g>
</g>
<g>
</g>
<g>
</g>
<g>
</g>
</svg>
