<?xml version="1.0" encoding="utf-8"?>
<!-- Uploaded to SVGRepo https://www.svgrepo.com -->
<!DOCTYPE svg PUBLIC "-//W3C//DTD SVG 1.1//EN" "http://www.w3.org/Graphics/SVG/1.1/DTD/svg11.dtd">
<svg width="1000px" height="1000px" viewBox="0 0 1000 1000" version="1.1" xmlns="http://www.w3.org/2000/svg" xmlns:xlink="http://www.w3.org/1999/xlink" fill="white" x="0px" y="0px" enable-background="new 0 0 1000 1000" xml:space="preserve">

<g><g transform="translate(0.000000,511.000000) scale(0.100000,-0.100000)"><path d="M4248.9,4991.6c-878.1-83.1-1782-460.8-2472.2-1036.3C141.1,2594.6-359.3,355.7,548.5-1540.9c233.4-488.5,486.5-848.4,886-1257.8c213.6-219.5,263-278.9,263-326.3c2-164.2,112.7-482.6,255.1-729.8c124.6-215.6,449-539.9,664.5-664.5c338.2-195.8,581.5-263.1,959.2-263.1c377.8,0,621,67.2,959.2,263.1c176,102.8,516.2,423.2,615.1,579.5l57.4,94.9h583.4H6375l57.4-94.9c98.9-156.3,439-476.7,615.1-579.5c579.5-336.2,1204.5-361.9,1778-73.2c207.7,102.9,306.5,172.1,476.6,334.2c759.5,721.9,801,1867,93,2628.4c-122.6,134.5-318.4,298.7-413.3,354c-23.7,11.9-17.8,47.5,41.5,221.5c563.7,1653.4,138.4,3469-1107.5,4713C6942.6,4631.6,5601.7,5120.1,4248.9,4991.6z M4525.8,4586.2l-2-114.7l-741.7-443l-741.7-443l-607.2-55.4c-334.2-29.7-646.7-59.3-696.2-63.3l-89-9.9l118.7,108.8c628.9,579.5,1439.8,967.1,2264.5,1083.8c237.3,33.6,316.4,41.5,421.3,45.5l73.2,4V4586.2z M5346.5,4647.5c818.8-116.7,1629.7-506.3,2254.6-1081.8l118.7-108.8l-89,9.9c-49.4,3.9-361.9,33.6-696.2,63.3l-607.2,55.4l-741.7,443l-741.7,443l-2,116.7v114.7l154.3-11.9C5079.6,4683.1,5237.8,4663.3,5346.5,4647.5z M4856.1,4091.7c85-49.4,162.2-96.9,170.1-104.8c21.7-19.8-73.2-87-880.1-619l-706-466.8l-75.2,227.4c-63.3,195.8-71.2,231.4-45.5,245.2c15.8,9.9,324.3,195.8,682.3,413.3c360,215.6,662.5,395.5,676.4,395.5C4691.9,4184.7,4771,4143.1,4856.1,4091.7z M5483,3715.9c65.3-39.6,136.5-83.1,156.3-96.9c31.6-21.8-81.1-100.9-965.1-688.3c-549.8-365.9-1008.7-660.6-1016.6-656.6c-7.9,5.9-35.6,77.1-61.3,160.2c-35.6,112.7-41.5,154.3-23.7,172.1c33.6,33.6,1752.3,1178.7,1772.1,1180.7C5352.5,3789.1,5415.8,3755.5,5483,3715.9z M6038.8,3383.7c37.6-29.7,37.6-31.6-17.8-197.8c-29.7-93-65.3-178-79.1-191.8c-13.8-13.8-296.7-205.7-627-427.2l-603.2-401.5l-302.6,5.9l-304.6,5.9l927.6,617.1c510.3,340.2,937.5,619,947.3,619C5991.3,3413.3,6017,3399.5,6038.8,3383.7z M3200.7,2651.9c108.8-326.3,197.8-603.2,197.8-617.1c0-25.7-838.6-1578.2-870.2-1613.8c-7.9-9.9-284.8-77.1-615.1-152.3c-443-98.9-607.2-128.6-623-110.8c-11.9,11.9-174,360-361.9,775.3l-342.2,753.5l73.2,195.8c94.9,255.1,239.3,561.7,365.9,771.3c126.6,207.7,332.3,486.5,352,474.7c7.9-4,369.8,25.7,804.9,65.3c435.1,41.5,797,67.2,806.9,61.3C2997,3249.2,3091.9,2976.3,3200.7,2651.9z M7990.8,3130.5c19.8,9.9,225.4-269,352-476.6c126.6-209.6,271-516.2,365.9-771.3l73.2-195.8l-342.1-753.5c-187.9-415.3-350.1-763.4-361.9-775.3c-15.8-17.8-180,11.9-623,110.8c-330.3,75.2-607.2,142.4-615.1,152.3c-31.6,35.6-870.2,1588.1-870.2,1613.8c0,25.7,383.7,1184.7,401.5,1214.4c5.9,9.9,369.8-15.8,808.9-55.4C7619,3154.3,7982.9,3124.6,7990.8,3130.5z M5734.2,2333.5l-57.3-156.2l-193.8-5.9c-118.7-4-187.9,2-176,11.9c39.6,35.6,472.7,318.4,478.6,312.5C5789.6,2491.7,5765.8,2418.5,5734.2,2333.5z M6133.7,1059.8l429.2-791.1l-342.1-628.9l-344.1-627H4684H3491.4l-344.1,627l-342.1,628.9l429.2,791.1l431.1,791.1H4684h1018.5L6133.7,1059.8z M766.1,535.7l278.9-611.1V-819v-745.6l-47.5-43.5l-47.5-45.5l-49.4,87c-27.7,45.5-85,166.1-128.6,263C534.7-759.7,412-170.3,412,434.9c0,274.9,45.5,745.6,69.2,721.9C485.2,1152.8,613.8,873.9,766.1,535.7z M8934.2,860.1c59.3-615.1-9.9-1236.1-199.8-1793.8c-49.4-146.4-69.2-180-93-172.1c-17.8,7.9-92.9,29.7-170.1,49.4l-138.4,35.6L8327-550l-4,470.7l280.8,621c193.8,427.2,284.8,607.2,294.7,583.4C8906.5,1105.3,8922.3,986.6,8934.2,860.1z M2577.7,33.4c27.7-57.4,27.7-59.3-25.7-96.9c-29.7-21.7-308.5-209.6-621-417.3l-569.6-377.8v342.1v344.1l579.5,130.5c316.4,71.2,583.4,130.5,591.4,130.5C2540.1,90.7,2559.9,65,2577.7,33.4z M7270.9-10.1l379.7-83.1l-680.4-454.9c-373.8-249.2-694.2-449-710-445c-19.8,4,11.9,79.1,124.6,282.8c83.1,152.3,215.6,395.6,294.7,539.9c110.7,201.7,152.3,261.1,176,253.2C6875.3,76.9,7061.3,35.4,7270.9-10.1z M8006.6-447.2l-2-203.7l-257.1-174l-257.1-174l-308.5,5.9l-308.5,5.9l551.8,369.8c304.6,203.7,557.7,369.8,567.6,369.8C8000.7-245.5,8006.6-336.5,8006.6-447.2z M2844.7-455.1c45.5-83.1,79.1-152.3,75.2-156.3c-4-2-334.2-223.5-735.7-490.5c-660.6-441-733.7-482.6-775.3-464.8c-43.5,19.8-47.5,33.6-47.5,176v152.3l696.2,466.8c383.7,257.1,698.1,466.7,700.1,466.7C2759.6-304.8,2799.2-372.1,2844.7-455.1z M3121.6-961.4c19.8-33.6,33.6-69.2,29.7-77.1c-5.9-5.9-51.4-23.7-102.8-35.6c-352-89-773.3-393.6-1026.5-741.7l-39.6-55.4l-102.8,51.4c-57.4,29.7-102.8,55.4-102.8,61.3c0,13.8,1271.7,860.3,1291.5,860.3C3076.1-898.1,3099.8-925.8,3121.6-961.4z M4001.7-1362.9c425.2-114.7,806.9-431.1,996.8-826.7c122.6-255.1,148.3-375.8,148.3-706.1c0-330.3-25.7-450.9-148.3-706.1c-191.8-399.5-567.6-710-1006.7-828.7c-180-49.4-650.7-49.4-830.7,0c-439.1,118.7-814.8,429.2-1006.7,828.7c-98.9,205.7-136.5,352-152.3,599.2c-51.4,812.9,480.6,1509,1269.7,1659.3C3463.7-1307.5,3829.6-1317.4,4001.7-1362.9z M6909-1357c-114.7-85-352-324.3-437.1-443c-272.9-381.7-399.5-850.4-348.1-1289.5c11.9-106.8,39.6-249.2,61.3-316.4l37.6-122.6h-431.1h-431.1l37.6,116.7c191.8,623,11.9,1323.1-466.7,1811.6c-96.9,100.9-209.6,205.7-247.2,233.4l-69.2,53.4h1176.8l1176.8-2L6909-1357z M8244-1333.3c271-43.5,599.3-185.9,781.2-336.2c233.4-195.8,437.1-514.2,518.2-810.9c47.5-180,47.5-650.7-2-830.7c-118.7-439.1-429.2-814.8-828.7-1006.7c-255.1-122.6-375.8-148.3-706.1-148.3c-330.3,0-450.9,25.7-706.1,148.3c-310.5,148.3-567.6,405.4-716,715.9c-122.6,255.1-148.3,375.8-148.3,706.1c0,330.3,25.7,450.9,146.4,704.1C6881.3-1570.6,7551.7-1224.5,8244-1333.3z M1545.3-1993.8l286.8-156.3l-35.6-91c-19.8-49.4-51.4-158.2-71.2-237.3l-35.6-148.3l-146.4,158.2c-81.1,85-209.6,239.3-284.8,340.2l-138.4,183.9l55.4,59.3c29.7,31.6,61.3,55.4,69.2,53.4C1252.6-1835.6,1387.1-1908.8,1545.3-1993.8z"/><path d="M3101.8-1995.8v-365.9l237.3-118.7l237.3-118.7l237.3,118.7l237.3,118.7v365.9v365.9h-474.7h-474.7V-1995.8z M3734.7-2055.1c0-106.8-2-108.8-79.1-148.3l-79.1-39.6l-79.1,39.6c-77.1,39.6-79.1,41.5-79.1,148.3v108.8h158.2h158.2V-2055.1z"/><path d="M2310.7-2895.7v-474.7h365.9h365.9l118.7,237.3l118.7,237.3l-118.7,237.3L3042.5-2421h-365.9h-365.9V-2895.7z M2884.2-2816.6l39.6-79.1l-39.6-79.1c-39.6-77.1-41.5-79.1-148.3-79.1h-108.8v158.2v158.2h108.8C2842.7-2737.5,2844.7-2739.4,2884.2-2816.6z"/><path d="M3991.8-2658.3l-118.7-237.3l118.7-237.3l118.7-237.3h365.9h365.9v474.7v474.7h-365.9h-365.9L3991.8-2658.3z M4525.8-2895.7v-158.2H4417c-106.8,0-108.8,2-148.3,79.1l-39.6,79.1l39.6,79.1c39.6,77.1,41.5,79.1,148.3,79.1h108.8V-2895.7z"/><path d="M3335.2-3313l-233.4-116.7v-365.9v-365.9h474.7h474.7v365.9v365.9L3813.8-3311c-130.5,65.3-239.3,118.7-241.3,116.7C3568.5-3194.3,3461.7-3247.7,3335.2-3313z M3655.6-3587.9c77.1-39.6,79.1-41.5,79.1-148.3V-3845h-158.2h-158.2v108.8c0,104.8,2,108.8,75.2,146.4C3584.4-3540.4,3564.6-3540.4,3655.6-3587.9z"/><path d="M7868.2-1655.6c-98.9-31.6-282.8-221.5-312.5-322.4c-13.8-45.5-23.7-102.9-23.7-126.6c0-217.5,257.1-474.7,474.7-474.7c217.5,0,474.7,257.1,474.7,474.7c0,108.8-51.4,209.7-158.2,316.4C8176.7-1639.8,8042.2-1600.3,7868.2-1655.6z M8125.3-1985.9c25.7-25.7,39.6-65.3,39.6-118.7c0-104.8-53.4-158.2-158.2-158.2c-104.8,0-158.2,53.4-158.2,158.2c0,53.4,13.8,93,39.6,118.7c25.7,25.7,65.3,39.6,118.7,39.6C8060-1946.4,8099.6-1960.2,8125.3-1985.9z"/><path d="M7077.1-2446.7c-98.9-31.6-282.8-221.5-312.5-322.4c-13.8-45.5-23.7-102.9-23.7-126.6c0-217.6,257.1-474.7,474.7-474.7c217.5,0,474.7,257.1,474.7,474.7c0,108.8-51.4,209.6-158.2,316.4C7385.6-2430.9,7251.1-2391.3,7077.1-2446.7z M7334.2-2777c25.7-25.7,39.6-65.3,39.6-118.7c0-104.8-53.4-158.2-158.2-158.2c-104.8,0-158.2,53.4-158.2,158.2c0,104.8,53.4,158.2,158.2,158.2C7268.9-2737.5,7308.5-2751.3,7334.2-2777z"/><path d="M8659.3-2446.7c-98.9-31.6-282.8-221.5-312.5-322.4c-13.8-45.5-23.7-102.9-23.7-126.6c0-217.6,257.1-474.7,474.7-474.7c217.6,0,474.7,257.1,474.7,474.7c0,108.8-51.4,209.6-158.2,316.4C8967.8-2430.9,8833.3-2391.3,8659.3-2446.7z M8916.4-2777c25.7-25.7,39.6-65.3,39.6-118.7c0-104.8-53.4-158.2-158.2-158.2c-104.8,0-158.2,53.4-158.2,158.2c0,104.8,53.4,158.2,158.2,158.2C8851.1-2737.5,8890.7-2751.3,8916.4-2777z"/><path d="M7868.2-3237.8c-98.9-31.7-282.8-221.5-312.5-322.4c-13.8-45.5-23.7-102.9-23.7-126.6c0-217.6,257.1-474.7,474.7-474.7c217.5,0,474.7,257.1,474.7,474.7c0,108.8-51.4,209.6-158.2,316.4C8176.7-3222,8042.2-3182.5,7868.2-3237.8z M8125.3-3568.1c25.7-25.7,39.6-65.3,39.6-118.7c0-104.8-53.4-158.2-158.2-158.2c-104.8,0-158.2,53.4-158.2,158.2s53.4,158.2,158.2,158.2C8060-3528.6,8099.6-3542.4,8125.3-3568.1z"/></g></g>
</svg>